<svg width="11" height="14" viewBox="0 0 11 14" fill="none" xmlns="http://www.w3.org/2000/svg">
<path d="M10.4678 9.0791C10.4678 9.72949 10.3447 10.3008 10.0986 10.793C9.85254 11.2852 9.52148 11.6924 9.10547 12.0146C8.61328 12.4014 8.07129 12.6768 7.47949 12.8408C6.89355 13.0049 6.14648 13.0869 5.23828 13.0869H0V0H4.62305C5.58398 0 6.31055 0.0380859 6.80273 0.114258C7.30078 0.18457 7.7666 0.336914 8.2002 0.571289C8.66895 0.823242 9.01758 1.16016 9.24609 1.58203C9.48047 2.00391 9.59766 2.49023 9.59766 3.04102C9.59766 3.67969 9.43652 4.24805 9.11426 4.74609C8.79785 5.24414 8.3584 5.61035 7.7959 5.84473V5.91504C8.60449 6.08496 9.25195 6.43359 9.73828 6.96094C10.2246 7.48242 10.4678 8.18848 10.4678 9.0791ZM6.25781 3.7002C6.25781 3.48926 6.20215 3.27246 6.09082 3.0498C5.98535 2.82715 5.81836 2.66602 5.58984 2.56641C5.37305 2.47266 5.11523 2.42285 4.81641 2.41699C4.52344 2.40527 4.08398 2.39941 3.49805 2.39941H3.26953V5.16797H3.68262C4.24512 5.16797 4.6377 5.16211 4.86035 5.15039C5.08887 5.13867 5.32324 5.07715 5.56348 4.96582C5.82715 4.84277 6.00879 4.67285 6.1084 4.45605C6.20801 4.23926 6.25781 3.9873 6.25781 3.7002ZM7.08398 9.01758C7.08398 8.61328 7.00195 8.29688 6.83789 8.06836C6.67383 7.83984 6.42773 7.66699 6.09961 7.5498C5.90039 7.47363 5.625 7.43262 5.27344 7.42676C4.92773 7.41504 4.46191 7.40918 3.87598 7.40918H3.26953V10.6875H3.44531C4.30078 10.6875 4.89258 10.6816 5.2207 10.6699C5.54883 10.6582 5.88281 10.5791 6.22266 10.4326C6.52148 10.3037 6.73828 10.1162 6.87305 9.87012C7.01367 9.61816 7.08398 9.33398 7.08398 9.01758Z" fill="#3E9CDC"/>
</svg>
