<svg width="39" height="26" viewBox="0 0 39 26" fill="none" xmlns="http://www.w3.org/2000/svg">
<path d="M15.4286 18V16.0714H18V10.2857H17.9598C17.6384 10.7879 17.3371 11.0089 16.8549 11.4308L15.308 9.82366L18.2812 7.07143H20.5714V16.0714H23.1429V18H15.4286ZM25.7143 12.8571C25.7143 9.20089 23.5045 4.5 19.2857 4.5C15.067 4.5 12.8571 9.20089 12.8571 12.8571C12.8571 16.5134 15.067 21.2143 19.2857 21.2143C23.5045 21.2143 25.7143 16.5134 25.7143 12.8571ZM36 18C33.1674 18 30.8571 20.3103 30.8571 23.1429H7.71429C7.71429 20.3103 5.40402 18 2.57143 18V7.71429C5.40402 7.71429 7.71429 5.40402 7.71429 2.57143H30.8571C30.8571 5.40402 33.1674 7.71429 36 7.71429V18ZM38.5714 1.28571C38.5714 0.582589 37.9888 0 37.2857 0H1.28571C0.582589 0 0 0.582589 0 1.28571V24.4286C0 25.1317 0.582589 25.7143 1.28571 25.7143H37.2857C37.9888 25.7143 38.5714 25.1317 38.5714 24.4286V1.28571Z" fill="white"/>
</svg>
