<svg width="9" height="6" viewBox="0 0 9 6" fill="none" xmlns="http://www.w3.org/2000/svg">
<path d="M8.91072 0.741071C8.91072 0.669643 8.875 0.589285 8.82143 0.535714L8.375 0.0892854C8.32143 0.0357141 8.24107 0 8.16964 0C8.09822 0 8.01786 0.0357141 7.96429 0.0892854L4.45536 3.59821L0.946429 0.0892854C0.892857 0.0357141 0.8125 0 0.741071 0C0.660714 0 0.589286 0.0357141 0.535714 0.0892854L0.0892857 0.535714C0.0357143 0.589285 0 0.669643 0 0.741071C0 0.8125 0.0357143 0.892858 0.0892857 0.946429L4.25 5.10714C4.30357 5.16071 4.38393 5.19643 4.45536 5.19643C4.52679 5.19643 4.60714 5.16071 4.66071 5.10714L8.82143 0.946429C8.875 0.892858 8.91072 0.8125 8.91072 0.741071Z" fill="black"/>
</svg>
