<svg width="15" height="12" viewBox="0 0 15 12" fill="none" xmlns="http://www.w3.org/2000/svg">
<path d="M13.9286 10.4464C13.9286 10.5887 13.803 10.7143 13.6607 10.7143H1.33929C1.19699 10.7143 1.07143 10.5887 1.07143 10.4464V4.01786C1.24721 4.21875 1.43973 4.4029 1.649 4.57031C2.84598 5.49107 4.05134 6.42857 5.21484 7.39955C5.84263 7.9269 6.62109 8.57143 7.49163 8.57143H7.5H7.50837C8.37891 8.57143 9.15737 7.9269 9.78516 7.39955C10.9487 6.42857 12.154 5.49107 13.351 4.57031C13.5603 4.4029 13.7528 4.21875 13.9286 4.01786V10.4464ZM13.9286 1.649C13.9286 2.36049 13.2422 3.28962 12.6981 3.71652C11.5765 4.59542 10.4548 5.4827 9.34152 6.36998C8.89788 6.72991 8.09431 7.5 7.50837 7.5H7.5H7.49163C6.90569 7.5 6.10212 6.72991 5.65848 6.36998C4.5452 5.4827 3.42355 4.59542 2.3019 3.71652C1.54855 3.12221 1.07143 2.29353 1.07143 1.33929C1.07143 1.19699 1.19699 1.07143 1.33929 1.07143H13.6607C13.9788 1.07143 13.9286 1.43973 13.9286 1.649ZM15 1.33929C15 0.602678 14.3973 0 13.6607 0H1.33929C0.602679 0 0 0.602678 0 1.33929V10.4464C0 11.183 0.602679 11.7857 1.33929 11.7857H13.6607C14.3973 11.7857 15 11.183 15 10.4464V1.33929Z" fill="#3E9CDC"/>
</svg>
