<svg width="36" height="29" viewBox="0 0 36 29" fill="none" xmlns="http://www.w3.org/2000/svg">
<path d="M33.4286 25.0714C33.4286 25.4129 33.1272 25.7143 32.7857 25.7143H3.21429C2.87277 25.7143 2.57143 25.4129 2.57143 25.0714V9.64286C2.9933 10.125 3.45536 10.567 3.95759 10.9688C6.83036 13.1786 9.72322 15.4286 12.5156 17.7589C14.0223 19.0246 15.8906 20.5714 17.9799 20.5714H18H18.0201C20.1094 20.5714 21.9777 19.0246 23.4844 17.7589C26.2768 15.4286 29.1696 13.1786 32.0424 10.9688C32.5446 10.567 33.0067 10.125 33.4286 9.64286V25.0714ZM33.4286 3.95759C33.4286 5.66518 31.7813 7.89509 30.4754 8.91964C27.7835 11.029 25.0915 13.1585 22.4196 15.2879C21.3549 16.1518 19.4263 18 18.0201 18H18H17.9799C16.5737 18 14.6451 16.1518 13.5804 15.2879C10.9085 13.1585 8.21652 11.029 5.52455 8.91964C3.71652 7.4933 2.57143 5.50446 2.57143 3.21429C2.57143 2.87277 2.87277 2.57143 3.21429 2.57143H32.7857C33.5491 2.57143 33.4286 3.45536 33.4286 3.95759ZM36 3.21429C36 1.44643 34.5536 0 32.7857 0H3.21429C1.44643 0 0 1.44643 0 3.21429V25.0714C0 26.8393 1.44643 28.2857 3.21429 28.2857H32.7857C34.5536 28.2857 36 26.8393 36 25.0714V3.21429Z" fill="white"/>
</svg>
