<svg width="39" height="42" viewBox="0 0 39 42" fill="none" xmlns="http://www.w3.org/2000/svg">
<path d="M15.1293 22.8876V21.6019C15.1293 21.2403 15.4105 20.9591 15.7721 20.9591H29.915C30.2766 20.9591 30.5579 21.2403 30.5579 21.6019V22.8876C30.5579 23.2492 30.2766 23.5305 29.915 23.5305H15.7721C15.4105 23.5305 15.1293 23.2492 15.1293 22.8876Z" fill="white"/>
<path d="M15.7721 26.1019H29.915C30.2766 26.1019 30.5579 26.3832 30.5579 26.7448V28.0305C30.5579 28.3921 30.2766 28.6733 29.915 28.6733H15.7721C15.4105 28.6733 15.1293 28.3921 15.1293 28.0305V26.7448C15.1293 26.3832 15.4105 26.1019 15.7721 26.1019Z" fill="white"/>
<path d="M15.7721 31.2448H29.915C30.2766 31.2448 30.5579 31.526 30.5579 31.8876V33.1733C30.5579 33.535 30.2766 33.8162 29.915 33.8162H15.7721C15.4105 33.8162 15.1293 33.535 15.1293 33.1733V31.8876C15.1293 31.526 15.4105 31.2448 15.7721 31.2448Z" fill="white"/>
<path fill-rule="evenodd" clip-rule="evenodd" d="M7.415 14.83C3.31981 14.83 0 11.5102 0 7.415C0 3.31981 3.31981 0 7.415 0C10.859 0 13.7546 2.34797 14.5884 5.53049H27.3436C28.4083 5.53049 29.8949 6.15326 30.6382 6.89656L36.9061 13.1644C37.6494 13.9077 38.2721 15.3943 38.2721 16.4591V39.6019C38.2721 40.6667 37.4083 41.5305 36.3436 41.5305H9.34357C8.27884 41.5305 7.415 40.6667 7.415 39.6019L7.415 14.83ZM9.98643 14.372C12.6089 13.4023 14.5331 10.9922 14.7986 8.10192H25.415V16.4591C25.415 17.5238 26.2788 18.3876 27.3436 18.3876H35.7007V38.9591H9.98643V14.372ZM28.8101 8.7046C28.6695 8.56397 28.3279 8.38317 27.9864 8.26263V15.8162H35.54C35.4195 15.4747 35.2387 15.1332 35.098 14.9925L28.8101 8.7046ZM8.415 8.41504H12.415V6.41504H8.415V2.41504H6.415V6.41504H2.415V8.41504H6.415V12.415H8.415V8.41504Z" fill="white"/>
</svg>
