<svg width="14" height="18" viewBox="0 0 14 18" fill="none" xmlns="http://www.w3.org/2000/svg">
<path fill-rule="evenodd" clip-rule="evenodd" d="M0.000202012 8.69327C0.000202012 7.70922 0.0833991 7.0847 2.13847 5.56344C3.83986 4.30395 9.2934 0 9.2934 0V7.18467H13.4406V17.5252H1.29554C0.583122 17.5252 0 16.947 0 16.2404L0.000202012 8.69334V8.69327Z" fill="#3E9CDC"/>
<path fill-rule="evenodd" clip-rule="evenodd" d="M9.29338 7.18457V11.3476L1.67249 16.4961L11.3077 13.3872V7.18457H9.29338Z" fill="black" fill-opacity="0.2"/>
<path fill-rule="evenodd" clip-rule="evenodd" d="M5.81077 6.96942C6.25646 6.4428 6.90733 6.25694 7.26471 6.5543C7.6221 6.85173 7.55066 7.51976 7.10497 8.04637C6.65961 8.57292 6.00848 8.75859 5.65109 8.46116C5.2937 8.1638 5.36534 7.4959 5.81077 6.96935V6.96942Z" fill="#231F20"/>
</svg>
