<svg width="34" height="34" viewBox="0 0 34 34" fill="none" xmlns="http://www.w3.org/2000/svg">
<path d="M23.1429 14.1429C23.1429 19.1049 19.1049 23.1429 14.1429 23.1429C9.1808 23.1429 5.14286 19.1049 5.14286 14.1429C5.14286 9.1808 9.1808 5.14286 14.1429 5.14286C19.1049 5.14286 23.1429 9.1808 23.1429 14.1429ZM33.4286 30.8571C33.4286 30.1741 33.1473 29.5112 32.6853 29.0491L25.7946 22.1585C27.4219 19.808 28.2857 16.9955 28.2857 14.1429C28.2857 6.32812 21.9576 0 14.1429 0C6.32812 0 0 6.32812 0 14.1429C0 21.9576 6.32812 28.2857 14.1429 28.2857C16.9955 28.2857 19.808 27.4219 22.1585 25.7946L29.0491 32.6652C29.5112 33.1473 30.1741 33.4286 30.8571 33.4286C32.2634 33.4286 33.4286 32.2634 33.4286 30.8571Z" fill="white"/>
</svg>
