<svg width="20" height="20" viewBox="0 0 20 20" fill="none" xmlns="http://www.w3.org/2000/svg">
<path d="M16.4086 13.4559C16.4687 13.8435 16.3418 14.0076 16.2135 14.0076C16.0853 14.0076 15.8996 13.85 15.6925 13.5373C15.4855 13.2245 15.4147 12.8769 15.5149 12.6986C15.5526 12.6368 15.6135 12.5915 15.6849 12.572C15.7563 12.5525 15.8327 12.5604 15.8983 12.5939C16.2389 12.718 16.3725 13.2233 16.4086 13.4559ZM14.5209 14.3061C14.9311 14.6408 15.0553 15.0389 14.8389 15.3193C14.773 15.3977 14.689 15.46 14.5936 15.5013C14.4982 15.5426 14.3942 15.5617 14.2898 15.557C14.061 15.5574 13.8393 15.4801 13.6633 15.3386C13.2919 15.0246 13.1824 14.5142 13.4255 14.2247C13.4792 14.1653 13.5462 14.1186 13.6215 14.0881C13.6968 14.0577 13.7782 14.0443 13.8597 14.049C14.1045 14.0569 14.3386 14.1479 14.5209 14.3061ZM13.8369 17.5367C15.599 17.5367 17.5107 18.1208 19.6281 19.9351C19.8392 20.1161 20.1211 19.8912 19.9367 19.6651C17.8567 17.1258 15.929 16.6412 14.0146 16.2329C11.6688 15.7315 10.4611 14.4535 9.61546 13.0514C9.44847 12.7723 9.37232 12.8214 9.35762 13.1806C9.34358 13.7131 9.38521 14.2456 9.48186 14.7701C9.38701 14.7701 9.29083 14.7701 9.19598 14.7701C7.99378 14.7701 6.81858 14.4252 5.81899 13.7792C4.8194 13.1331 4.04031 12.2148 3.58025 11.1404C3.12019 10.0661 2.99982 8.88385 3.23436 7.7433C3.46889 6.60275 4.04781 5.55509 4.89789 4.7328C5.74797 3.91051 6.83104 3.35053 8.01014 3.12366C9.18924 2.89679 10.4114 3.01322 11.5221 3.45824C12.6328 3.90326 13.5821 4.65688 14.25 5.62379C14.9179 6.5907 15.2744 7.72748 15.2744 8.89037C15.275 9.11877 15.2621 9.347 15.2357 9.57397C14.5953 9.49597 13.9482 9.48427 13.3053 9.53908C13.0741 9.55846 13.1075 9.6683 13.2812 9.69285C15.2851 10.043 16.6718 11.2435 16.987 13.4339C16.9882 13.445 16.9929 13.4555 17.0005 13.4638C17.0082 13.4721 17.0183 13.478 17.0296 13.4804C17.0408 13.4828 17.0526 13.4818 17.0632 13.4774C17.0738 13.473 17.0827 13.4654 17.0886 13.4559C18.131 11.7703 18.5674 9.79838 18.3297 7.84774C18.092 5.89709 17.1936 4.07738 15.7746 2.67245C14.3556 1.26752 12.4958 0.356356 10.4853 0.0810911C8.47478 -0.194174 6.42664 0.181935 4.6603 1.15075C2.89396 2.11957 1.50876 3.62662 0.720758 5.43683C-0.0672464 7.24704 -0.213743 9.25863 0.304117 11.1578C0.821978 13.057 1.97508 14.737 3.58355 15.9358C5.19203 17.1346 7.16544 17.7848 9.19598 17.7849C10.5386 17.7887 11.8758 17.5355 13.8369 17.5355V17.5367Z" fill="#3E9CDC"/>
</svg>
