<svg width="31" height="31" viewBox="0 0 31 31" fill="none" xmlns="http://www.w3.org/2000/svg">
<path d="M25.7143 23.1429C25.7143 24.5491 24.5491 25.7143 23.1429 25.7143C21.7366 25.7143 20.5714 24.5491 20.5714 23.1429C20.5714 21.7366 21.7366 20.5714 23.1429 20.5714C24.5491 20.5714 25.7143 21.7366 25.7143 23.1429ZM10.2857 7.71429C10.2857 9.12054 9.12054 10.2857 7.71429 10.2857C6.30804 10.2857 5.14286 9.12054 5.14286 7.71429C5.14286 6.30804 6.30804 5.14286 7.71429 5.14286C9.12054 5.14286 10.2857 6.30804 10.2857 7.71429ZM30.8571 23.1429C30.8571 18.8839 27.4018 15.4286 23.1429 15.4286C18.8839 15.4286 15.4286 18.8839 15.4286 23.1429C15.4286 27.4018 18.8839 30.8571 23.1429 30.8571C27.4018 30.8571 30.8571 27.4018 30.8571 23.1429ZM28.9286 1.28571C28.9286 0.582589 28.346 0 27.6429 0H24.4286C24.0268 0 23.6451 0.200893 23.404 0.522323L2.18973 28.808C2.02902 29.029 1.92857 29.2902 1.92857 29.5714C1.92857 30.2746 2.51116 30.8571 3.21429 30.8571H6.42857C6.83036 30.8571 7.21205 30.6563 7.45313 30.3348L28.6674 2.04911C28.8281 1.82813 28.9286 1.56696 28.9286 1.28571ZM15.4286 7.71429C15.4286 3.45536 11.9732 0 7.71429 0C3.45536 0 0 3.45536 0 7.71429C0 11.9732 3.45536 15.4286 7.71429 15.4286C11.9732 15.4286 15.4286 11.9732 15.4286 7.71429Z" fill="white"/>
</svg>
